<?xml version="1.0" encoding="UTF-8"?>
<svg id="_图层_2" data-name="图层_2" xmlns="http://www.w3.org/2000/svg" viewBox="0 0 1975.13 185.88">
  <g id="_图层_1-2" data-name="图层_1">
    <g>
      <g>
        <g>
          <path d="M830.8,5.61l49.18,92.38h.37l49.56-92.38h18.33v137.45h-16.83V35.16h-.38l-46.75,89.2h-8.22l-46.94-89.2h-.37v107.9h-16.83V5.61h18.89Z"/>
          <path d="M1016.5,40.95c10.97,0,19.95,3.12,26.92,9.35,7.6,6.74,11.41,15.96,11.41,27.68v65.08h-15.15v-13.47h-.56c-2.87,4.12-7.04,7.55-12.53,10.29-6.36,3.25-13.4,4.87-21.13,4.87-9.48,0-17.45-2.74-23.94-8.23-6.86-5.73-10.29-13.21-10.29-22.44,0-10.23,3.8-18.33,11.41-24.32,7.36-5.86,16.89-8.79,28.61-8.79,9.72,0,18.89,1.68,27.49,5.05v-7.48c0-7.6-2.18-13.4-6.55-17.39-4.11-3.74-9.47-5.61-16.08-5.61-11.6,0-21.63,4.87-30.11,14.59l-10.29-10.85c4.61-5.49,10.35-9.85,17.21-13.09,7.35-3.49,15.21-5.24,23.56-5.24ZM988.08,113.32c0,5.24,1.87,9.41,5.61,12.53,3.61,2.99,8.6,4.49,14.96,4.49,8.22,0,15.21-2.24,20.94-6.73,6.11-4.74,9.17-10.91,9.17-18.52v-5.24c-6.11-3.37-15.15-5.23-27.12-5.61-6.61,0-12.03,1.5-16.27,4.49-4.87,3.5-7.29,8.36-7.29,14.59Z"/>
          <path d="M1121.6,185.88c-16.46,0-30.37-5.49-41.7-16.46l8.79-12.15c9.35,9.35,20.32,14.02,32.92,14.02,11.22,0,19.45-3.12,24.68-9.35,4.12-4.99,6.17-11.85,6.17-20.57v-13.28h-.56c-2.74,4.24-6.73,7.73-11.97,10.47-6.11,3.24-12.78,4.86-20,4.86-12.22,0-22.57-4.3-31.05-12.9-8.36-8.73-12.72-21.32-13.1-37.78,0-15.09,4.3-27.49,12.91-37.22,8.6-9.72,19.45-14.58,32.54-14.58,6.85,0,13.4,1.75,19.63,5.24,5.49,3.12,9.6,6.85,12.35,11.22h.19v-14.59h15.14v98.56c0,14.08-4.06,24.99-12.16,32.72-8.22,7.85-19.82,11.79-34.78,11.79ZM1092.61,92c0,11.35,2.86,20.38,8.6,27.12,5.49,6.48,12.41,9.72,20.75,9.72,9.73,0,17.45-3.24,23.19-9.72,5.61-6.36,8.41-14.84,8.41-25.44,0-12.34-3.12-21.94-9.35-28.8-5.61-6.24-12.71-9.35-21.31-9.35s-15.77,3.43-21.5,10.29c-5.86,6.99-8.79,15.71-8.79,26.18Z"/>
          <path d="M1195.84,16.64c0-2.99.93-5.54,2.8-7.66,1.99-2.24,4.6-3.37,7.85-3.37s5.92,1.12,8.04,3.37c1.87,2,2.8,4.55,2.8,7.66,0,2.87-1,5.36-2.99,7.48-2.12,2.24-4.74,3.37-7.85,3.37s-5.55-1.12-7.67-3.37c-2-2.12-2.99-4.61-2.99-7.48ZM1198.65,143.06V42.82h16.08v100.24h-16.08Z"/>
          <path d="M1288.03,40.95c7.36,0,14.34,1.49,20.95,4.49,6.24,2.87,11.34,6.54,15.33,11.04l-10.1,10.1c-2.87-2.99-6.42-5.49-10.66-7.48-4.98-2.37-10.16-3.55-15.52-3.55-10.22,0-18.26,3.24-24.12,9.72-5.86,6.48-8.79,15.59-8.79,27.3s2.8,20.88,8.41,27.49c5.74,6.73,13.72,10.1,23.94,10.1,11.22,0,20.95-5.05,29.18-15.14l9.91,9.91c-3.49,5.36-8.6,9.91-15.33,13.65-7.6,4.11-15.77,6.17-24.5,6.17-14.71,0-26.49-4.74-35.34-14.21-8.73-9.35-13.09-22.01-13.09-37.97s4.49-27.74,13.46-37.21c9.1-9.6,21.2-14.4,36.28-14.4Z"/>
          <path d="M1346,143.06V5.61h50.12c14.59,0,25.93,2.99,34.04,8.97,9.35,6.99,14.03,17.77,14.03,32.35s-4.68,25.68-14.03,32.92c-7.73,5.98-18.02,8.97-30.86,8.97h-36.47v54.23h-16.83ZM1362.83,74.24h34.78c19.45,0,29.17-9.03,29.17-27.11,0-9.1-2.68-15.96-8.04-20.57-4.98-4.24-12.03-6.36-21.13-6.36h-34.78v54.04Z"/>
          <path d="M1503.27,40.95c10.97,0,19.95,3.12,26.92,9.35,7.6,6.74,11.41,15.96,11.41,27.68v65.08h-15.15v-13.47h-.56c-2.87,4.12-7.04,7.55-12.53,10.29-6.36,3.25-13.4,4.87-21.13,4.87-9.48,0-17.45-2.74-23.94-8.23-6.86-5.73-10.29-13.21-10.29-22.44,0-10.23,3.8-18.33,11.41-24.32,7.36-5.86,16.89-8.79,28.61-8.79,9.72,0,18.89,1.68,27.49,5.05v-7.48c0-7.6-2.18-13.4-6.55-17.39-4.11-3.74-9.47-5.61-16.08-5.61-11.6,0-21.63,4.87-30.11,14.59l-10.29-10.85c4.61-5.49,10.35-9.85,17.21-13.09,7.35-3.49,15.21-5.24,23.56-5.24ZM1474.85,113.32c0,5.24,1.87,9.41,5.61,12.53,3.61,2.99,8.6,4.49,14.96,4.49,8.22,0,15.21-2.24,20.94-6.73,6.11-4.74,9.17-10.91,9.17-18.52v-5.24c-6.11-3.37-15.15-5.23-27.12-5.61-6.61,0-12.03,1.5-16.27,4.49-4.87,3.5-7.29,8.36-7.29,14.59Z"/>
          <path d="M1656.25,143.06h-15.15v-14.59h-.56c-2.87,4.37-7.3,8.11-13.28,11.22-6.36,3.37-12.71,5.05-19.08,5.05-13.08,0-23.74-4.36-31.97-13.09-9.11-9.6-13.66-22.75-13.66-39.46,0-15.71,4.74-28.36,14.22-37.97,8.73-8.85,19.38-13.27,31.97-13.27,6.99,0,13.53,1.62,19.65,4.86,5.35,2.87,9.09,6.17,11.22,9.91h.56V0h16.08v143.06ZM1579.38,92c0,11.47,2.93,20.76,8.79,27.86,5.61,6.86,12.84,10.29,21.69,10.29s16.64-3.49,22.63-10.47c5.86-6.85,8.79-15.52,8.79-26,0-12.22-3.25-21.81-9.73-28.8-5.73-6.24-12.84-9.35-21.31-9.35s-16.15,3.18-21.88,9.54c-5.99,6.61-8.98,15.59-8.98,26.93Z"/>
          <path d="M1730.86,143.06v-14.21l44.51-53.49c7.1-8.6,11.66-14.58,13.65-17.95,3.74-6.24,5.61-12.46,5.61-18.7,0-7.23-2.24-12.72-6.73-16.46-4.11-3.37-9.72-5.05-16.83-5.05-14.84.63-23.69,7.55-26.56,20.76h-16.64c1.75-10.85,6.8-19.51,15.15-25.99,7.98-6.24,17.51-9.35,28.61-9.35s21,3.06,28.23,9.16c7.73,6.48,11.59,15.46,11.59,26.93-.37,10.35-3.61,19.51-9.72,27.48-5.99,7.98-12.28,15.65-18.89,23l-32.35,39.46v.19h63.02v14.21h-82.66Z"/>
        </g>
        <g>
          <polygon points="79.23 5.12 103.8 5.12 103.8 143.04 79.23 143.04 79.23 85.59 24.57 85.59 24.57 143.04 0 143.04 0 5.12 24.57 5.12 24.57 61.02 79.23 61.02 79.23 5.12"/>
          <polygon points="390.87 91.19 331.22 5.12 311.64 5.12 311.64 143.04 336.21 143.04 336.21 56.55 396.14 143.04 415.44 143.04 415.44 5.12 390.87 5.12 390.87 91.19"/>
          <path d="M519.36,3.23c-39.08,0-70.76,31.68-70.76,70.76s31.68,70.76,70.76,70.76,70.76-31.68,70.76-70.76S558.44,3.23,519.36,3.23ZM519.36,120.18c-25.51,0-46.19-20.68-46.19-46.19s20.68-46.19,46.19-46.19,46.19,20.68,46.19,46.19-20.68,46.19-46.19,46.19Z"/>
          <path d="M689.02,92.76c18.11-5.77,31.23-22.73,31.23-42.76,0-24.74-20.03-44.81-44.75-44.88h0s-52.22,0-52.22,0v137.92h24.57v-61.38l51.18,61.38h31.92l-41.93-50.28ZM647.84,70.31V29.69h27.36c11.21,0,20.3,9.09,20.3,20.31s-9.1,20.31-20.31,20.31h-27.35Z"/>
          <path d="M207.72,3.23c-39.08,0-70.76,31.68-70.76,70.76s31.68,70.76,70.76,70.76,70.76-31.68,70.76-70.76S246.8,3.23,207.72,3.23ZM207.72,120.18c-25.51,0-46.19-20.68-46.19-46.19s20.68-46.19,46.19-46.19,46.19,20.68,46.19,46.19-20.68,46.19-46.19,46.19Z"/>
        </g>
      </g>
      <g>
        <path d="M1951.87,74.51h-80.75c-12.82,0-23.25-10.43-23.25-23.25v-22.28c0-12.82,10.43-23.25,23.25-23.25h80.75c12.82,0,23.25,10.43,23.25,23.25v22.28c0,12.82-10.43,23.25-23.25,23.25ZM1871.13,9.23c-10.89,0-19.75,8.86-19.75,19.75v22.28c0,10.89,8.86,19.75,19.75,19.75h80.75c10.89,0,19.75-8.86,19.75-19.75v-22.28c0-10.89-8.86-19.75-19.75-19.75h-80.75Z"/>
        <g>
          <path d="M1880.93,21.51v37.09h-4.34V26.41h-.1l-7.32,5.95v-4.59l7.97-6.26h3.78Z"/>
          <path d="M1889.86,58.6v-3.84l12.01-14.43c1.92-2.32,3.15-3.93,3.69-4.84,1.01-1.68,1.51-3.36,1.51-5.04,0-1.95-.61-3.43-1.81-4.44-1.11-.91-2.62-1.36-4.54-1.36-4,.17-6.39,2.04-7.17,5.6h-4.49c.48-2.93,1.84-5.26,4.09-7.01,2.15-1.68,4.73-2.52,7.72-2.52s5.67.83,7.62,2.47c2.09,1.75,3.13,4.17,3.13,7.27-.1,2.79-.98,5.26-2.63,7.42-1.61,2.15-3.31,4.22-5.09,6.21l-8.73,10.65v.05h17v3.84h-22.31Z"/>
          <path d="M1921.25,52.34c.91,0,1.68.32,2.32.96.61.6.91,1.38.91,2.32,0,.88-.32,1.63-.96,2.27-.64.64-1.4.96-2.27.96s-1.58-.32-2.22-.96-.96-1.4-.96-2.27.3-1.68.91-2.32,1.36-.96,2.27-.96Z"/>
          <path d="M1941.64,59.4c-3.13,0-5.79-.99-7.98-2.98-2.35-2.12-3.55-4.88-3.58-8.27h4.54c.1,2.18.83,3.95,2.17,5.3,1.34,1.35,3.01,2.02,5,2.02,2.35,0,4.14-.59,5.35-1.76,1.25-1.21,1.87-2.98,1.87-5.3,0-2.69-.89-4.62-2.67-5.8-1.45-.94-3.54-1.42-6.25-1.42h-1.62v-3.84h1.62c2.22,0,4.02-.53,5.4-1.61,1.55-1.21,2.32-2.88,2.32-4.99,0-1.82-.52-3.28-1.56-4.39-1.08-1.14-2.52-1.72-4.34-1.72-1.98,0-3.58.68-4.79,2.02-.94,1.04-1.57,2.34-1.87,3.89h-4.44c.14-2.56,1.16-4.79,3.08-6.71,2.09-2.09,4.73-3.13,7.92-3.13s5.75.89,7.67,2.67,2.88,4.09,2.88,6.91c-.1,4.58-1.88,7.47-5.35,8.68v.2c4.17,1.01,6.35,4.03,6.55,9.08,0,3.3-1.02,5.95-3.08,7.97-2.15,2.12-5.09,3.18-8.82,3.18Z"/>
        </g>
      </g>
    </g>
  </g>
</svg>